<?xml version="1.0" encoding="UTF-8"?>
<svg id="Layer_1" data-name="Layer 1" xmlns="http://www.w3.org/2000/svg" viewBox="0 0 185.63 58.72">
  <defs>
    <style>
      .cls-1, .cls-2 {
        fill: #fff;
      }

      .cls-2 {
        stroke: #1a1a1a;
        stroke-miterlimit: 10;
        stroke-width: 3.91px;
      }

      .cls-3 {
        fill: #e25e3b;
      }
    </style>
  </defs>
  <g>
    <path class="cls-1" d="M63.8,28.76l.13.31h.09l.13-.31,2.4-10.4h4.69s-4.88,18.69-4.88,18.69v13.86s-4.79,0-4.79,0v-13.86s-4.85-18.69-4.85-18.69h4.69s2.38,10.41,2.38,10.41Z"/>
    <path class="cls-1" d="M73.31,50.91l.02-32.55h4.21c2.83,0,5.05.54,6.51,1.91,1.46,1.37,2.21,3.5,2.21,6.73,0,1.55-.13,2.7-.62,3.76-.49,1.06-1.24,1.95-2.35,2.97,1.2.67,2.08,1.91,2.79,3.99.35,1.02.53,2.35.53,3.99,0,2.44-.45,4.6-1.55,6.29-1.11,1.68-3.01,2.79-5.85,2.92h-5.89ZM78.09,46.18c.4,0,1.33.09,2.13-.49.8-.58,1.42-1.86,1.42-4.52s-.62-3.94-1.41-4.52-1.73-.49-2.12-.49v10.01ZM78.1,31.79c.4,0,1.33.05,2.13-.49.8-.53,1.42-1.59,1.42-3.85s-.62-3.32-1.41-3.85c-.8-.53-1.73-.49-2.13-.49v8.68Z"/>
    <path class="cls-1" d="M89.45,18.38h10.94s0,4.92,0,4.92h-6.15s0,8.54,0,8.54h4.43s0,5.23,0,5.23h-4.43s0,8.94,0,8.94h6.15s0,4.92,0,4.92h-10.94s.02-32.55.02-32.55Z"/>
    <path class="cls-1" d="M111.56,50.94l-2.47-13.73h-1.28s-.01,13.73-.01,13.73h-4.78s.02-32.55.02-32.55h4.78c5.71,0,8.15,3.24,8.14,9.4,0,3.23-.85,6.15-2.66,7.39l3.04,15.77h-4.78ZM107.81,32.78c.66,0,1.55-.09,2.26-.71.71-.62,1.29-1.81,1.29-4.12,0-2.3-.57-3.54-1.28-4.16-.71-.62-1.59-.67-2.26-.67v9.65Z"/>
    <path class="cls-1" d="M119,50.94l.02-32.55h3.76c4.43,0,6.82.89,8.1,3.37,1.24,2.48,1.41,6.55,1.41,12.93,0,6.38-.18,10.41-1.43,12.88-1.29,2.48-3.68,3.36-8.11,3.36h-3.76ZM123.79,46.17c1.64,0,2.57-.18,3.06-1.77.22-.75.4-1.9.45-3.45.05-1.55.05-3.63.05-6.29,0-2.66,0-4.74-.04-6.29-.04-1.51-.22-2.66-.44-3.45-.49-1.55-1.42-1.73-3.05-1.73l-.02,22.98Z"/>
    <path class="cls-1" d="M148.21,18.42l-.02,25.86c-.05,1.33-.31,2.52-.8,3.54-.4.89-1.02,1.73-1.91,2.39-.89.71-2.08,1.11-3.68,1.1s-2.83-.4-3.72-1.11c-.89-.66-1.46-1.51-1.86-2.39-.49-1.02-.75-2.21-.79-3.54l.02-25.86h4.78s-.02,25.86-.02,25.86c0,.93.22,1.55.66,2.04.22.22.53.35.93.35.84,0,1.24-.53,1.42-1.19.13-.31.18-.71.18-1.2l.02-25.86h4.78Z"/>
    <path class="cls-1" d="M151.68,50.97l.02-32.55h3.76c4.43,0,6.82.89,8.1,3.37,1.24,2.48,1.41,6.55,1.41,12.93,0,6.38-.18,10.41-1.43,12.88-1.29,2.48-3.68,3.36-8.11,3.36h-3.76ZM156.47,46.19c1.64,0,2.57-.18,3.06-1.77.22-.75.4-1.9.45-3.45s.05-3.63.05-6.29c0-2.66,0-4.74-.04-6.29-.04-1.51-.22-2.66-.44-3.45-.49-1.55-1.42-1.73-3.05-1.73l-.02,22.98Z"/>
    <path class="cls-1" d="M168.18,18.43h10.94s0,4.92,0,4.92h-6.15s0,8.54,0,8.54h4.43s0,5.23,0,5.23h-4.43s0,8.94,0,8.94h6.15s0,4.92,0,4.92h-10.94s.02-32.55.02-32.55Z"/>
  </g>
  <circle class="cls-1" cx="32.66" cy="35.63" r="23.09"/>
  <path class="cls-2" d="M40.38,31.1c0-2.72,1.34-5.13,3.4-6.59-2.83-2.8-6.72-4.54-11.01-4.54-8.64,0-15.67,7.02-15.68,15.65s7.02,15.67,15.65,15.68c7.42,0,13.66-5.18,15.27-12.12-4.25-.2-7.64-3.74-7.64-8.07Z"/>
  <circle class="cls-3" cx="29.05" cy="36.58" r="5.17"/>
  <circle class="cls-1" cx="29.09" cy="36.84" r="2.2"/>
  <rect class="cls-3" x="7.03" y="14.41" width="5.72" height="5.72"/>
  <rect class="cls-3" x="7.14" y="4.76" width="4.29" height="4.29"/>
  <rect class="cls-1" y="9.76" width="4.76" height="4.76"/>
  <rect class="cls-1" x="1.19" width="4.05" height="4.05"/>
</svg>